<svg id="svg2" xmlns="http://www.w3.org/2000/svg" xmlns:xlink="http://www.w3.org/1999/xlink" viewBox="0 0 550.87 217.11"><defs><style>.cls-1{clip-path:url(#clip-path);}.cls-2{fill:none;}.cls-3{fill-opacity:0.2;}.cls-4{fill-opacity:0.12;}.cls-5{fill-opacity:0.25;}.cls-6{clip-path:url(#clip-path-5);}.cls-7{fill:#a6a6a6;}.cls-8,.cls-9{fill:#fff;}.cls-8{stroke:#fff;stroke-miterlimit:10;stroke-width:0.16px;}.cls-10{fill:url(#linear-gradient);}.cls-11{fill:url(#linear-gradient-2);}.cls-12{fill:url(#linear-gradient-3);}.cls-13{fill:url(#linear-gradient-4);}.cls-14{mask:url(#mask);}.cls-15{clip-path:url(#clip-path-8);}.cls-16{fill:url(#pattern134);}.cls-17{mask:url(#mask-2);}.cls-18{fill:url(#pattern182);}.cls-19{mask:url(#mask-3);}.cls-20{fill:url(#pattern230);}.cls-21{mask:url(#mask-4);}</style><clipPath id="clip-path"><rect class="cls-2" x="180.27" y="206.04" width="439.65" height="175.31"/></clipPath><clipPath id="clip-path-5"><rect class="cls-2" width="124" height="48"/></clipPath><linearGradient id="linear-gradient" x1="268.65" y1="120.06" x2="207.36" y2="181.34" gradientTransform="matrix(1, 0, 0, -0.99, -9.54, 439.35)" gradientUnits="userSpaceOnUse"><stop offset="0" stop-color="#00a0ff"/><stop offset="0.01" stop-color="#00a1ff"/><stop offset="0.26" stop-color="#00beff"/><stop offset="0.51" stop-color="#00d2ff"/><stop offset="0.76" stop-color="#00dfff"/><stop offset="1" stop-color="#00e3ff"/></linearGradient><linearGradient id="linear-gradient-2" x1="310.13" y1="161.29" x2="224.34" y2="161.29" gradientTransform="matrix(1, 0, 0, -0.99, -9.54, 439.35)" gradientUnits="userSpaceOnUse"><stop offset="0" stop-color="#ffe000"/><stop offset="0.41" stop-color="#ffbd00"/><stop offset="0.78" stop-color="orange"/><stop offset="1" stop-color="#ff9c00"/></linearGradient><linearGradient id="linear-gradient-3" x1="248.27" y1="139.52" x2="166.38" y2="221.4" gradientTransform="matrix(1, 0, 0, -0.99, -9.54, 439.35)" gradientUnits="userSpaceOnUse"><stop offset="0" stop-color="#ff3a44"/><stop offset="1" stop-color="#c31162"/></linearGradient><linearGradient id="linear-gradient-4" x1="185.22" y1="120.01" x2="221.78" y2="156.56" gradientTransform="matrix(1, 0, 0, -0.99, -9.54, 439.35)" gradientUnits="userSpaceOnUse"><stop offset="0" stop-color="#32a071"/><stop offset="0.07" stop-color="#2da771"/><stop offset="0.48" stop-color="#15cf74"/><stop offset="0.8" stop-color="#06e775"/><stop offset="1" stop-color="#00f076"/></linearGradient><mask id="mask" x="-145.54" y="-136.71" width="696.41" height="353.82" maskUnits="userSpaceOnUse"><g transform="translate(-145.54 -171)"><g id="mask114"><g id="g116"><g class="cls-1"><g id="g118"><path id="path120" class="cls-3" d="M180.27,206H619.92V381.35H180.27Z"/></g></g></g></g></g></mask><clipPath id="clip-path-8" transform="translate(-145.54 -171)"><rect class="cls-2" x="145.54" y="171" width="550.87" height="217.11"/></clipPath><pattern id="pattern134" data-name="pattern134" width="124" height="48" patternTransform="matrix(4.44, 0, 0, -4.39, -284.26, 2975.68)" patternUnits="userSpaceOnUse" viewBox="0 0 124 48"><rect class="cls-2" width="124" height="48"/><g id="g138"><g class="cls-6"><g id="g140"><g id="g142"><path id="path144" d="M29.62,27.31,18,33.9a1.32,1.32,0,0,1-1.6,0l-.06.06.06.06A1.32,1.32,0,0,0,18,34L29.7,27.38Z"/></g></g></g></g></pattern><mask id="mask-2" x="-145.54" y="-137.03" width="696.41" height="354.14" maskUnits="userSpaceOnUse"><g transform="translate(-145.54 -171)"><g id="mask162"><g id="g164"><g class="cls-1"><g id="g166"><path id="path168" class="cls-4" d="M180.27,206H619.92V381.35H180.27Z"/></g></g></g></g></g></mask><pattern id="pattern182" data-name="pattern182" width="124" height="48" patternTransform="matrix(4.44, 0, 0, -4.39, -284.26, 2975.68)" patternUnits="userSpaceOnUse" viewBox="0 0 124 48"><rect class="cls-2" width="124" height="48"/><g id="g186"><g class="cls-6"><g id="g188"><g id="g190"><path id="path192" d="M16.35,33.85A1.54,1.54,0,0,1,16,32.73v.12A1.56,1.56,0,0,0,16.35,34l.06-.06Z"/></g></g></g></g></pattern><mask id="mask-3" x="-145.54" y="-143.62" width="696.41" height="360.73" maskUnits="userSpaceOnUse"><g transform="translate(-145.54 -171)"><g id="mask210"><g id="g212"><g class="cls-1"><g id="g214"><path id="path216" class="cls-4" d="M180.27,206H619.92V381.35H180.27Z"/></g></g></g></g></g></mask><pattern id="pattern230" data-name="pattern230" width="124" height="48" patternTransform="matrix(4.44, 0, 0, -4.39, -284.26, 2975.68)" patternUnits="userSpaceOnUse" viewBox="0 0 124 48"><rect class="cls-2" width="124" height="48"/><g id="g234"><g class="cls-6"><g id="g236"><g id="g238"><path id="path240" d="M33.61,25l-4,2.27.08.07,3.91-2.22A1.41,1.41,0,0,0,34.45,24,1.5,1.5,0,0,1,33.61,25Z"/></g></g></g></g></pattern><mask id="mask-4" x="0" y="0" width="550.87" height="217.11" maskUnits="userSpaceOnUse"><g transform="translate(-145.54 -171)"><g id="mask258"><g id="g260"><g class="cls-1"><g id="g262"><path id="path264" class="cls-5" d="M180.27,206H619.92V381.35H180.27Z"/></g></g></g></g></g></mask></defs><g id="g10"><g id="g12"><path id="path14" d="M643.11,351.93H198.85a18,18,0,0,1-17.77-18.1V225.28a18,18,0,0,1,17.77-18.1H643.11a18,18,0,0,1,17.76,18.1V333.83A18,18,0,0,1,643.11,351.93Z" transform="translate(-145.54 -171)"/><path id="path16" class="cls-7" d="M643.11,210.08A15.08,15.08,0,0,1,658,225.28V333.83A15.08,15.08,0,0,1,643.11,349H198.85a15.08,15.08,0,0,1-14.92-15.2V225.28a15.08,15.08,0,0,1,14.92-15.2H643.11m0-2.9H198.85a18,18,0,0,0-17.77,18.1V333.83a18,18,0,0,0,17.77,18.1H643.11a18,18,0,0,0,17.76-18.1V225.28A18,18,0,0,0,643.11,207.18Z" transform="translate(-145.54 -171)"/><g id="g18"><path id="path20" class="cls-8" d="M349.6,244.25A10,10,0,0,1,347,251.5a10.32,10.32,0,0,1-7.85,3.22,10.68,10.68,0,0,1-7.84-3.26,11.72,11.72,0,0,1,0-16.16,10.61,10.61,0,0,1,7.84-3.27,11,11,0,0,1,4.38.92,8.66,8.66,0,0,1,3.33,2.42l-1.86,1.9a7.2,7.2,0,0,0-5.85-2.56,8.06,8.06,0,0,0-5.83,2.41,9.22,9.22,0,0,0,0,12.52,8.14,8.14,0,0,0,5.83,2.41,8,8,0,0,0,5.95-2.42,6.92,6.92,0,0,0,1.79-4.41h-7.74v-2.61h10.32A7.23,7.23,0,0,1,349.6,244.25Z" transform="translate(-145.54 -171)"/></g><g id="g22"><path id="path24" class="cls-8" d="M366,235.19h-9.7v6.87H365v2.62h-8.75v6.88H366v2.66H353.54V232.53H366Z" transform="translate(-145.54 -171)"/></g><g id="g26"><path id="path28" class="cls-8" d="M377.54,254.22H374.8v-19h-5.95v-2.66h14.64v2.66h-5.95Z" transform="translate(-145.54 -171)"/></g><g id="g30"><path id="path32" class="cls-8" d="M394.1,254.22V232.53h2.73v21.69Z" transform="translate(-145.54 -171)"/></g><g id="g34"><path id="path36" class="cls-8" d="M409,254.22h-2.72v-19h-6v-2.66H415v2.66h-6Z" transform="translate(-145.54 -171)"/></g><g id="g38"><path id="path40" class="cls-8" d="M442.69,251.43a10.94,10.94,0,0,1-15.64,0,11.9,11.9,0,0,1,0-16.11,10.9,10.9,0,0,1,15.62,0,11.86,11.86,0,0,1,0,16.1Zm-13.61-1.82a8.09,8.09,0,0,0,11.58,0,9.37,9.37,0,0,0,0-12.48,8.11,8.11,0,0,0-11.58,0,9.37,9.37,0,0,0,0,12.48Z" transform="translate(-145.54 -171)"/></g><g id="g42"><path id="path44" class="cls-8" d="M449.68,254.22V232.53H453l10.36,16.87h.12l-.12-4.18V232.53h2.74v21.69h-2.86L452.4,236.51h-.12l.12,4.19v13.52Z" transform="translate(-145.54 -171)"/></g><path id="path46" class="cls-9" d="M423.23,285.9a15.39,15.39,0,1,0,15.19,15.39A15,15,0,0,0,423.23,285.9Zm0,24.72c-4.58,0-8.52-3.85-8.52-9.33s3.94-9.33,8.52-9.33,8.54,3.78,8.54,9.33S427.81,310.62,423.23,310.62ZM390.14,285.9a15.39,15.39,0,1,0,15.17,15.39A15,15,0,0,0,390.14,285.9Zm0,24.72c-4.58,0-8.54-3.85-8.54-9.33s4-9.33,8.54-9.33,8.52,3.78,8.52,9.33S394.72,310.62,390.14,310.62Zm-39.38-20v6.55H366.1c-.45,3.65-1.65,6.34-3.48,8.21a15.65,15.65,0,0,1-11.86,4.77c-9.44,0-16.83-7.75-16.83-17.37s7.39-17.37,16.83-17.37a16.12,16.12,0,0,1,11.56,4.67l4.53-4.61a22.2,22.2,0,0,0-16.09-6.59,23.91,23.91,0,0,0,0,47.81c7,0,12.25-2.34,16.39-6.72s5.55-10.37,5.55-15.26a22.52,22.52,0,0,0-.35-4.09Zm161,5.08c-1.25-3.44-5.1-9.79-13-9.79s-14.25,6.23-14.25,15.39c0,8.62,6.41,15.39,15,15.39a15,15,0,0,0,12.6-6.82l-5.15-3.5a8.64,8.64,0,0,1-7.45,4.26,7.66,7.66,0,0,1-7.32-4.67l20.21-8.51-.69-1.75Zm-20.62,5.12a8.39,8.39,0,0,1,7.9-9c2.64,0,4.88,1.34,5.62,3.26l-13.52,5.71Zm-16.43,14.93h6.65V270.51h-6.65Zm-10.88-26.41h-.23a10.38,10.38,0,0,0-7.94-3.43c-7.57,0-14.49,6.77-14.49,15.44s6.92,15.34,14.49,15.34a10.22,10.22,0,0,0,7.94-3.5h.23v2.21c0,5.88-3.09,9-8.07,9a8.41,8.41,0,0,1-7.62-5.49l-5.78,2.46a14.44,14.44,0,0,0,13.4,9.09c7.79,0,14.37-4.66,14.37-16V286.83h-6.3Zm-7.61,21.29c-4.58,0-8.41-3.9-8.41-9.28s3.83-9.38,8.41-9.38,8.08,4,8.08,9.38S460.77,310.62,456.25,310.62Zm86.65-40.11H527v45.23h6.63V298.6h9.26c7.36,0,14.58-5.42,14.58-14S550.25,270.51,542.9,270.51Zm.18,21.8h-9.44V276.8h9.44a7.76,7.76,0,1,1,0,15.51Zm41-6.5c-4.79,0-9.77,2.15-11.82,6.93l5.89,2.51c1.26-2.51,3.59-3.33,6-3.33,3.44,0,6.93,2.1,7,5.82v.48a14.31,14.31,0,0,0-6.93-1.76c-6.33,0-12.79,3.55-12.79,10.18,0,6.06,5.19,10,11,10a9.36,9.36,0,0,0,8.47-4.44h.23v3.5h6.4V298.32C597.55,290.3,591.67,285.81,584.05,285.81Zm-.8,24.79c-2.17,0-5.19-1.1-5.19-3.83,0-3.5,3.77-4.85,7-4.85a11.78,11.78,0,0,1,6.06,1.52A8.1,8.1,0,0,1,583.25,310.6Zm37.62-23.8-7.61,19.61H613l-7.88-19.61H598l11.84,27.41-6.75,15.24H610l18.24-42.65Zm-59.75,28.94h6.65V270.51h-6.65Z" transform="translate(-145.54 -171)"/><g id="g48"><path id="path64" class="cls-10" d="M218.17,234.47a7.24,7.24,0,0,0-1.65,5.08v80a7.28,7.28,0,0,0,1.65,5.09l.26.24,44-44.82V279l-44-44.83Z" transform="translate(-145.54 -171)"/></g><g id="g66"><path id="path78" class="cls-11" d="M277.13,295l-14.66-14.94V279l14.68-14.95.33.19,17.39,10.08c5,2.85,5,7.56,0,10.44l-17.39,10Z" transform="translate(-145.54 -171)"/></g><g id="g80"><path id="path88" class="cls-12" d="M277.48,294.84l-15-15.28-44.3,45.11c1.64,1.76,4.33,2,7.39.21l51.92-30" transform="translate(-145.54 -171)"/></g><g id="g90"><path id="path104" class="cls-13" d="M277.48,264.27l-51.92-30c-3.06-1.75-5.75-1.54-7.39.23l44.3,45.09Z" transform="translate(-145.54 -171)"/></g><g id="g106"><g class="cls-14"><g id="g122"><g id="g146"><g class="cls-15"><g id="g148"><g id="g150"><path id="path152" class="cls-16" d="M145.54,388.11H696.41V171H145.54Z" transform="translate(-145.54 -171)"/></g></g></g></g></g></g></g><g id="g154"><g class="cls-17"><g id="g170"><g id="g194"><g class="cls-15"><g id="g196"><g id="g198"><path id="path200" class="cls-18" d="M145.54,388.11H696.41V171H145.54Z" transform="translate(-145.54 -171)"/></g></g></g></g></g></g></g><g id="g202"><g class="cls-19"><g id="g218"><g id="g242"><g class="cls-15"><g id="g244"><g id="g246"><path id="path248" class="cls-20" d="M176,356H665V202H176Z" transform="translate(-145.54 -171)"/></g></g></g></g></g></g></g></g></g></svg>